<?xml version="1.0" encoding="UTF-8" standalone="no"?>
<!-- Created with Inkscape (http://www.inkscape.org/) -->

<svg
   xmlns:dc="http://purl.org/dc/elements/1.1/"
   xmlns:cc="http://creativecommons.org/ns#"
   xmlns:rdf="http://www.w3.org/1999/02/22-rdf-syntax-ns#"
   xmlns:svg="http://www.w3.org/2000/svg"
   xmlns="http://www.w3.org/2000/svg"
   xmlns:sodipodi="http://sodipodi.sourceforge.net/DTD/sodipodi-0.dtd"
   xmlns:inkscape="http://www.inkscape.org/namespaces/inkscape"
   width="210mm"
   height="297mm"
   id="svg2"
   version="1.1"
   inkscape:version="0.48.2 r9819"
   inkscape:export-filename="D:\www\tagmatch\icon\tmt.png"
   inkscape:export-xdpi="203.37"
   inkscape:export-ydpi="203.37"
   sodipodi:docname="tmt.svg">
  <defs
     id="defs4" />
  <sodipodi:namedview
     id="base"
     pagecolor="#ffffff"
     bordercolor="#666666"
     borderopacity="1.0"
     inkscape:pageopacity="0.0"
     inkscape:pageshadow="2"
     inkscape:zoom="0.49497475"
     inkscape:cx="108.82183"
     inkscape:cy="662.02176"
     inkscape:document-units="px"
     inkscape:current-layer="layer1"
     showgrid="false"
     inkscape:window-width="994"
     inkscape:window-height="621"
     inkscape:window-x="22"
     inkscape:window-y="22"
     inkscape:window-maximized="0" />
  <metadata
     id="metadata7">
    <rdf:RDF>
      <cc:Work
         rdf:about="">
        <dc:format>image/svg+xml</dc:format>
        <dc:type
           rdf:resource="http://purl.org/dc/dcmitype/StillImage" />
        <dc:title></dc:title>
      </cc:Work>
    </rdf:RDF>
  </metadata>
  <g
     inkscape:label="レイヤー 1"
     inkscape:groupmode="layer"
     id="layer1">
    <path
       style="fill:#cc0c00;fill-opacity:1;stroke:none"
       d="m 208.32601,106.1451 c 0,0 -42.40286,22.92218 -52.76253,43.1407 -13.44767,26.24524 -13.40679,59.90605 -5.44815,88.30169 6.26544,22.35448 21.3415,43.07099 39.79334,57.16028 25.56303,19.51919 90.91373,32.32488 90.91373,32.32488 0,0 66.31509,-23.39853 88.89342,-48.48733 14.29168,-15.88077 22.55255,-37.91529 24.61132,-59.18058 2.58292,-26.67931 -3.21569,-55.79456 -16.06092,-78.7919 C 359.86627,119.4795 307.2144,97.007545 307.2144,97.007545 c 0,0 5.79033,8.085285 3.65397,11.489135 -4.92248,7.84295 -18.24567,3.6122 -27.5,3.92857 -11.33356,0.38745 -22.61525,-1.71993 -33.92857,-2.5 -12.97212,-0.89443 -38.92857,-2.5 -38.92857,-2.5 z"
       id="path2996"
       inkscape:connector-curvature="0"
       sodipodi:nodetypes="caaacaaccaaacc" />
    <path
       style="fill:#358300;fill-opacity:1;stroke:#000000;stroke-width:1px;stroke-linecap:butt;stroke-linejoin:miter;stroke-opacity:1"
       d="m 226.22551,107.42525 c 0,0 -1.94069,-11.675415 1.42857,-15.714281 2.8493,-3.41557 12.85715,-3.57143 12.85715,-3.57143 l 9.28571,13.571421 9.28571,-22.142841 42.85715,2.85714 -35,2.14286 -4.28572,23.571411 17.85715,17.14286 29.28571,-34.285701 7.14286,-12.85715 -10.71429,28.571421 -15.71429,21.42858 32.85715,-6.42858 12.14286,-3.57143 -11.42858,11.42858 -41.42857,2.85714 5,14.28571 22.85715,18.57143 -40,-15.71428 -1.42858,-12.85715 -20.71428,-3.57143 -37.14286,-22.85714 -10,-17.857131 -4.28571,-17.14286 16.42857,32.857131 30.71428,15.71429 z"
       id="path3768"
       inkscape:connector-curvature="0"
       sodipodi:nodetypes="cacccccccccccccccccccccccccc" />
    <path
       style="fill:none;stroke:#000000;stroke-width:1px;stroke-linecap:butt;stroke-linejoin:miter;stroke-opacity:1"
       d="m 226.76123,107.60382 c 0,0 7.88972,-0.87922 10.35714,-3.57143 3.64809,-3.98045 3.92857,-15.714271 3.92857,-15.714271"
       id="path3770"
       inkscape:connector-curvature="0"
       sodipodi:nodetypes="cac" />
    <rect
       style="fill:none;fill-opacity:1;stroke:none"
       id="rect3753"
       width="470"
       height="470"
       x="67.14286"
       y="53.790756"
       ry="37.416603" />
    <rect
       style="fill:none;stroke:#000000;stroke-width:0.89704424;stroke-opacity:1"
       id="rect3755"
       width="419.59534"
       height="423.63593"
       x="64.234238"
       y="1.1678481"
       ry="0" />
  </g>
</svg>
