<?xml version="1.0" encoding="UTF-8" standalone="no"?>
<!-- Created with Inkscape (http://www.inkscape.org/) -->

<svg
   xmlns:dc="http://purl.org/dc/elements/1.1/"
   xmlns:cc="http://creativecommons.org/ns#"
   xmlns:rdf="http://www.w3.org/1999/02/22-rdf-syntax-ns#"
   xmlns:svg="http://www.w3.org/2000/svg"
   xmlns="http://www.w3.org/2000/svg"
   xmlns:sodipodi="http://sodipodi.sourceforge.net/DTD/sodipodi-0.dtd"
   xmlns:inkscape="http://www.inkscape.org/namespaces/inkscape"
   width="210mm"
   height="297mm"
   id="svg2"
   version="1.1"
   inkscape:version="0.48.2 r9819"
   sodipodi:docname="gsis.svg"
   inkscape:export-filename="/media/3606EB2006EAE03B/www/tagmatch/icon/tkmi.png"
   inkscape:export-xdpi="16.981638"
   inkscape:export-ydpi="16.981638">
  <defs
     id="defs4" />
  <sodipodi:namedview
     id="base"
     pagecolor="#ffffff"
     bordercolor="#666666"
     borderopacity="1.0"
     inkscape:pageopacity="0.0"
     inkscape:pageshadow="2"
     inkscape:zoom="0.98994949"
     inkscape:cx="151.62586"
     inkscape:cy="398.57777"
     inkscape:document-units="px"
     inkscape:current-layer="layer1"
     showgrid="false"
     inkscape:window-width="1366"
     inkscape:window-height="744"
     inkscape:window-x="0"
     inkscape:window-y="24"
     inkscape:window-maximized="1" />
  <metadata
     id="metadata7">
    <rdf:RDF>
      <cc:Work
         rdf:about="">
        <dc:format>image/svg+xml</dc:format>
        <dc:type
           rdf:resource="http://purl.org/dc/dcmitype/StillImage" />
        <dc:title></dc:title>
      </cc:Work>
    </rdf:RDF>
  </metadata>
  <g
     inkscape:label="レイヤー 1"
     inkscape:groupmode="layer"
     id="layer1">
    <rect
       style="fill:#ffffff;fill-opacity:1;stroke:none;stroke-opacity:1"
       id="rect3801"
       width="425.2742"
       height="386.88849"
       x="93.944183"
       y="366.4686" />
    <path
       sodipodi:type="arc"
       style="fill:#ffffff;fill-opacity:1;stroke:#000000;stroke-width:3;stroke-miterlimit:4;stroke-opacity:1;stroke-dasharray:none"
       id="path3803"
       sodipodi:cx="316.17773"
       sodipodi:cy="572.53973"
       sodipodi:rx="117.1777"
       sodipodi:ry="75.761444"
       d="m 433.35543,572.53973 a 117.1777,75.761444 0 1 1 -234.35539,0 117.1777,75.761444 0 1 1 234.35539,0 z"
       transform="matrix(1.7603164,0,0,1.6043733,-250.40153,-384.87103)" />
    <path
       sodipodi:type="arc"
       style="fill:#ffffff;fill-opacity:1;stroke:#000000;stroke-width:1;stroke-miterlimit:4;stroke-opacity:1;stroke-dasharray:none"
       id="path3805"
       sodipodi:cx="16.667517"
       sodipodi:cy="508.39505"
       sodipodi:rx="159.09903"
       sodipodi:ry="97.479721"
       d="m 175.76655,508.39505 a 159.09903,97.479721 0 1 1 -318.19806,0 159.09903,97.479721 0 1 1 318.19806,0 z"
       transform="matrix(0.996019,0,0,0.92268247,293.3481,66.401774)" />
    <path
       style="fill:#dcad22;fill-opacity:1;stroke:none"
       d="m 206.89853,451.6666 c -21.04999,11.64888 -46.50405,26.20561 -52.52794,49.49748 -8.31896,32.16597 7.30981,70.97319 30.30458,94.95434 27.79488,28.98717 73.32064,36.17579 113.13709,41.41625 41.22601,5.42598 85.51802,4.01959 124.24876,-11.11167 20.57581,-8.03852 51.30835,-18.34949 52.52793,-40.40611 1.36733,-24.72871 -33.63225,-36.78223 -53.53808,-51.51778 -21.68618,-16.05348 -47.99044,-24.84277 -70.71068,-39.39595 -18.26127,-11.69704 -43.38064,-18.72309 -52.52793,-38.38579 -4.12859,-8.87467 9.55531,-23.04714 2.0203,-29.29443 -24.64563,-20.43371 -64.92242,8.74228 -92.93403,24.24366 z"
       id="path3809"
       inkscape:connector-curvature="0"
       sodipodi:nodetypes="aaaaaaaaaaa" />
    <path
       style="fill:#ff6600;stroke:none"
       d="m 320.82821,574.07319 c 2.63786,-12.34716 23.90096,-14.66434 36.10827,-11.44063 7.0827,1.8704 11.3427,9.73532 14.94119,16.11606 7.52399,13.34135 18.34821,29.9418 12.67253,44.16814 -3.6156,9.06266 -15.61248,13.1708 -25.22369,14.85279 -26.44271,4.62753 -55.52184,-2.12528 -79.1494,-14.86769 -15.40144,-8.30605 -29.62208,-21.67093 -36.44148,-37.78584 -14.49529,-34.25374 -17.24,-76.87067 -3.72132,-111.52145 3.00398,-7.69974 10.20123,-13.59627 17.39033,-17.67385 5.59774,-3.17499 12.32749,-4.3751 18.76032,-4.55931 5.97,-0.17096 11.98489,1.26109 17.62415,3.22802 11.04786,3.85341 30.69039,4.82398 30.97068,16.5212 0.29467,12.2968 -19.70824,21.69363 -31.68889,18.90758 -6.9264,-1.61073 -5.23093,-21.02063 -11.61744,-17.89303 -33.83079,16.56758 37.14479,106.73016 37.14479,106.73016 0,0 27.1672,35.52176 40.17221,26.2181 7.26104,-5.19449 1.11229,-21.47568 -6.61063,-25.95472 -5.85846,-3.39772 -12.98373,6.96052 -19.57974,5.42476 -5.10986,-1.18972 -12.84802,-5.33955 -11.75188,-10.47029 z"
       id="path3811"
       inkscape:connector-curvature="0"
       sodipodi:nodetypes="aaaaaaaaaaaaaacaaaa" />
  </g>
</svg>
